{"images":[{"uri":"20160416044751212241.jpg","name":"20160416044751212241.jpg"}],"accessors":[{"componentType":5126,"bufferView":0,"count":1,"type":"SCALAR","byteOffset":0},{"componentType":5123,"bufferView":1,"count":9456,"type":"SCALAR","byteOffset":0},{"componentType":5123,"bufferView":1,"count":41370,"type":"SCALAR","byteOffset":18912},{"componentType":5123,"bufferView":1,"count":1242,"type":"SCALAR","byteOffset":101652},{"componentType":5126,"max":[8.143131256103516,12.026694297790527,10.751540184020996],"bufferView":2,"count":1748,"type":"VEC3","min":[-8.143131256103516,2.6583616733551025,-12.458370208740234],"byteOffset":0},{"componentType":5126,"bufferView":2,"count":1748,"type":"VEC3","byteOffset":12},{"componentType":5126,"bufferView":2,"count":1748,"type":"VEC2","byteOffset":24},{"componentType":5126,"max":[10.15999984741211,15.37394905090332,15.308859825134277],"bufferView":3,"count":7580,"type":"VEC3","min":[-10.15999984741211,-15.37394905090332,-15.308859825134277],"byteOffset":0},{"componentType":5126,"bufferView":3,"count":7580,"type":"VEC3","byteOffset":12},{"componentType":5126,"bufferView":3,"count":7580,"type":"VEC2","byteOffset":24},{"componentType":5126,"max":[2.7534232139587402,10.112475395202637,10.0403413772583],"bufferView":4,"count":224,"type":"VEC3","min":[-2.7534239292144775,4.6056294441223145,9.735541343688965],"byteOffset":0},{"componentType":5126,"bufferView":4,"count":224,"type":"VEC3","byteOffset":12},{"componentType":5126,"bufferView":4,"count":224,"type":"VEC2","byteOffset":24}],"textures":[{"source":0,"sampler":0}],"buffers":[{"byteLength":409804,"uri":"buffer.bin"}],"bufferViews":[{"byteLength":4,"byteOffset":0,"buffer":0},{"byteLength":104136,"target":34963,"byteOffset":4,"buffer":0},{"byteLength":55936,"byteStride":32,"target":34962,"byteOffset":104140,"buffer":0},{"byteLength":242560,"byteStride":32,"target":34962,"byteOffset":160076,"buffer":0},{"byteLength":7168,"byteStride":32,"target":34962,"byteOffset":402636,"buffer":0}],"samplers":[{"magFilter":9729,"minFilter":9987}],"scene":0,"nodes":[{"children":[1],"name":"RootNode"},{"scale":[0.266142696142197,0.266142785549164,0.266142785549164],"name":"Camera_12","translation":[0,4.09166574478149,-0.000000179164231894902],"mesh":0},{"children":[0],"name":"Pivot"}],"materials":[{"pbrMetallicRoughness":{"roughnessFactor":0.800000011920929,"baseColorFactor":[0.00784313771873713,0.00784313771873713,0.00784313771873713,1],"metallicFactor":0.92},"extensions":{"KHR_materials_specular":{"specularFactor":0.3}},"name":"黑漆，YY"},{"pbrMetallicRoughness":{"roughnessFactor":0.69,"baseColorFactor":[0.3203815487918104,0.348864834082879,0.348864834082879,1]},"extensions":{"KHR_materials_specular":{"specularFactor":0.3}},"name":"金属漆"},{"pbrMetallicRoughness":{"roughnessFactor":0.800000011920929,"baseColorFactor":[1,1,1,1],"baseColorTexture":{"index":0},"metallicFactor":0.200000002980232},"extensions":{"KHR_materials_specular":{"specularFactor":0.3}},"name":"lenses"}],"animations":[{"samplers":[],"channels":[],"name":"Take 001"}],"scenes":[{"nodes":[2],"name":"Root Scene"}],"asset":{"generator":"CG美术之家","source":"https://www.cgmszj.com/model/111091.html","version":"2.0"},"meshes":[{"primitives":[{"mode":4,"indices":1,"material":0,"attributes":{"POSITION":4,"TEXCOORD_0":6,"NORMAL":5}},{"mode":4,"indices":2,"material":1,"attributes":{"POSITION":7,"TEXCOORD_0":9,"NORMAL":8}},{"mode":4,"indices":3,"material":2,"attributes":{"POSITION":10,"TEXCOORD_0":12,"NORMAL":11}}],"name":"Camera_12"}]}