{
  "accessors": [
    {
      "bufferView": 2,
      "componentType": 5126,
      "count": 24,
      "max": [
        11.636710166931152,
        13.853300094604492,
        52.86603927612305
      ],
      "min": [
        11.611180305480957,
        13.801630020141602,
        52.82571029663086
      ],
      "type": "VEC3"
    },
    {
      "bufferView": 2,
      "byteOffset": 288,
      "componentType": 5126,
      "count": 24,
      "max": [
        -0.86786949634552,
        0.38200458884239197,
        0.31760838627815247
      ],
      "min": [
        -0.86786949634552,
        0.38200458884239197,
        0.31760838627815247
      ],
      "type": "VEC3"
    },
    {
      "bufferView": 0,
      "componentType": 5125,
      "count": 66,
      "type": "SCALAR"
    },
    {
      "bufferView": 2,
      "byteOffset": 576,
      "componentType": 5126,
      "count": 24,
      "max": [
        11.636710166931152,
        13.853300094604492,
        52.86603927612305
      ],
      "min": [
        11.611180305480957,
        13.801630020141602,
        52.82571029663086
      ],
      "type": "VEC3"
    },
    {
      "bufferView": 2,
      "byteOffset": 864,
      "componentType": 5126,
      "count": 24,
      "max": [
        0.86786949634552,
        -0.38200458884239197,
        -0.31760838627815247
      ],
      "min": [
        0.86786949634552,
        -0.38200458884239197,
        -0.31760838627815247
      ],
      "type": "VEC3"
    },
    {
      "bufferView": 0,
      "byteOffset": 264,
      "componentType": 5125,
      "count": 66,
      "type": "SCALAR"
    },
    {
      "bufferView": 2,
      "byteOffset": 1152,
      "componentType": 5126,
      "count": 33294,
      "max": [
        36.252620697021484,
        14.088118553161621,
        59.55022048950195
      ],
      "min": [
        9.802058219909668,
        10.943228721618652,
        6.288260919973254e-06
      ],
      "type": "VEC3"
    },
    {
      "bufferView": 0,
      "byteOffset": 528,
      "componentType": 5125,
      "count": 132190,
      "type": "SCALAR"
    },
    {
      "bufferView": 2,
      "byteOffset": 400680,
      "componentType": 5126,
      "count": 29891,
      "max": [
        36.25271224975586,
        14.361369132995605,
        59.55065155029297
      ],
      "min": [
        9.693488121032715,
        10.837199211120605,
        6.288260919973254e-06
      ],
      "type": "VEC3"
    },
    {
      "bufferView": 0,
      "byteOffset": 529288,
      "componentType": 5125,
      "count": 69150,
      "type": "SCALAR"
    },
    {
      "bufferView": 2,
      "byteOffset": 759372,
      "componentType": 5126,
      "count": 18154,
      "max": [
        36.244110107421875,
        13.853300094604492,
        59.10995101928711
      ],
      "min": [
        11.611180305480957,
        11.435519218444824,
        52.199859619140625
      ],
      "type": "VEC3"
    },
    {
      "bufferView": 2,
      "byteOffset": 977220,
      "componentType": 5126,
      "count": 18154,
      "max": [
        0.9976161122322083,
        1.0,
        0.997607409954071
      ],
      "min": [
        -0.9976161122322083,
        -1.0,
        -0.997607409954071
      ],
      "type": "VEC3"
    },
    {
      "bufferView": 0,
      "byteOffset": 805888,
      "componentType": 5125,
      "count": 21228,
      "type": "SCALAR"
    },
    {
      "bufferView": 2,
      "byteOffset": 1195068,
      "componentType": 5126,
      "count": 65534,
      "max": [
        36.015499114990234,
        14.061491966247559,
        58.52136993408203
      ],
      "min": [
        9.823210716247559,
        10.973349571228027,
        51.233741760253906
      ],
      "type": "VEC3"
    },
    {
      "bufferView": 2,
      "byteOffset": 1981476,
      "componentType": 5126,
      "count": 65534,
      "max": [
        1.0,
        1.0,
        1.0
      ],
      "min": [
        -1.0,
        -1.0,
        -1.0
      ],
      "type": "VEC3"
    },
    {
      "bufferView": 0,
      "byteOffset": 890800,
      "componentType": 5125,
      "count": 67740,
      "type": "SCALAR"
    },
    {
      "bufferView": 2,
      "byteOffset": 2767884,
      "componentType": 5126,
      "count": 7875,
      "max": [
        35.901851654052734,
        13.924880027770996,
        58.49177169799805
      ],
      "min": [
        32.88035202026367,
        11.63318920135498,
        57.53947830200195
      ],
      "type": "VEC3"
    },
    {
      "bufferView": 2,
      "byteOffset": 2862384,
      "componentType": 5126,
      "count": 7875,
      "max": [
        0.9717805981636047,
        1.0,
        0.9914565086364746
      ],
      "min": [
        -0.9717805981636047,
        -1.0,
        -0.9914565086364746
      ],
      "type": "VEC3"
    },
    {
      "bufferView": 0,
      "byteOffset": 1161760,
      "componentType": 5125,
      "count": 7887,
      "type": "SCALAR"
    },
    {
      "bufferView": 2,
      "byteOffset": 2956884,
      "componentType": 5126,
      "count": 6720,
      "max": [
        34.69710922241211,
        12.77609920501709,
        58.09294128417969
      ],
      "min": [
        11.13366985321045,
        12.083918571472168,
        53.91767120361328
      ],
      "type": "VEC3"
    },
    {
      "bufferView": 2,
      "byteOffset": 3037524,
      "componentType": 5126,
      "count": 6720,
      "max": [
        0.9978216290473938,
        0.9998739957809448,
        0.9999861121177673
      ],
      "min": [
        -0.9978216290473938,
        -0.9998739957809448,
        -0.9999861121177673
      ],
      "type": "VEC3"
    },
    {
      "bufferView": 0,
      "byteOffset": 1193308,
      "componentType": 5125,
      "count": 6750,
      "type": "SCALAR"
    },
    {
      "bufferView": 2,
      "byteOffset": 3118164,
      "componentType": 5126,
      "count": 65532,
      "max": [
        34.98725128173828,
        13.05639934539795,
        58.31694030761719
      ],
      "min": [
        10.9419584274292,
        11.456671714782715,
        53.751888275146484
      ],
      "type": "VEC3"
    },
    {
      "bufferView": 2,
      "byteOffset": 3904548,
      "componentType": 5126,
      "count": 65532,
      "max": [
        0.9992902278900146,
        0.9998288154602051,
        1.0
      ],
      "min": [
        -0.9992902278900146,
        -0.9998288154602051,
        -1.0
      ],
      "type": "VEC3"
    },
    {
      "bufferView": 0,
      "byteOffset": 1220308,
      "componentType": 5125,
      "count": 66084,
      "type": "SCALAR"
    },
    {
      "bufferView": 2,
      "byteOffset": 4690932,
      "componentType": 5126,
      "count": 38152,
      "max": [
        34.997310638427734,
        13.09778118133545,
        58.37955093383789
      ],
      "min": [
        11.598441123962402,
        11.605132102966309,
        53.80847930908203
      ],
      "type": "VEC3"
    },
    {
      "bufferView": 2,
      "byteOffset": 5148756,
      "componentType": 5126,
      "count": 38152,
      "max": [
        0.9984182715415955,
        0.9999443292617798,
        0.9999898076057434
      ],
      "min": [
        -0.9984182715415955,
        -0.9999443292617798,
        -0.9999898076057434
      ],
      "type": "VEC3"
    },
    {
      "bufferView": 0,
      "byteOffset": 1484644,
      "componentType": 5125,
      "count": 38220,
      "type": "SCALAR"
    },
    {
      "bufferView": 2,
      "byteOffset": 5606580,
      "componentType": 5126,
      "count": 6282,
      "max": [
        34.62293243408203,
        12.77609920501709,
        58.08766174316406
      ],
      "min": [
        11.188399314880371,
        12.169501304626465,
        53.91767120361328
      ],
      "type": "VEC3"
    },
    {
      "bufferView": 2,
      "byteOffset": 5681964,
      "componentType": 5126,
      "count": 6282,
      "max": [
        0.9977535009384155,
        0.9998562932014465,
        0.9999994039535522
      ],
      "min": [
        -0.9977535009384155,
        -0.9998562932014465,
        -0.9999994039535522
      ],
      "type": "VEC3"
    },
    {
      "bufferView": 0,
      "byteOffset": 1637524,
      "componentType": 5125,
      "count": 6534,
      "type": "SCALAR"
    },
    {
      "bufferView": 2,
      "byteOffset": 5757348,
      "componentType": 5126,
      "count": 7224,
      "max": [
        34.67766189575195,
        12.77609920501709,
        58.09156036376953
      ],
      "min": [
        11.147990226745605,
        12.106348991394043,
        53.91767120361328
      ],
      "type": "VEC3"
    },
    {
      "bufferView": 2,
      "byteOffset": 5844036,
      "componentType": 5126,
      "count": 7224,
      "max": [
        0.9977676272392273,
        0.9998348951339722,
        0.9999970197677612
      ],
      "min": [
        -0.9977676272392273,
        -0.9998348951339722,
        -0.9999970197677612
      ],
      "type": "VEC3"
    },
    {
      "bufferView": 0,
      "byteOffset": 1663660,
      "componentType": 5125,
      "count": 7302,
      "type": "SCALAR"
    },
    {
      "bufferView": 2,
      "byteOffset": 5930724,
      "componentType": 5126,
      "count": 3984,
      "max": [
        34.98902893066406,
        12.784441947937012,
        58.13301086425781
      ],
      "min": [
        34.91133117675781,
        12.71127986907959,
        58.06221008300781
      ],
      "type": "VEC3"
    },
    {
      "bufferView": 2,
      "byteOffset": 5978532,
      "componentType": 5126,
      "count": 3984,
      "max": [
        0.9977313280105591,
        1.0,
        0.997572124004364
      ],
      "min": [
        -0.9977313280105591,
        -1.0,
        -0.997572124004364
      ],
      "type": "VEC3"
    },
    {
      "bufferView": 0,
      "byteOffset": 1692868,
      "componentType": 5125,
      "count": 3984,
      "type": "SCALAR"
    },
    {
      "bufferView": 2,
      "byteOffset": 6026340,
      "componentType": 5126,
      "count": 7294,
      "max": [
        34.65378952026367,
        12.77609920501709,
        58.08985900878906
      ],
      "min": [
        11.165617942810059,
        12.133891105651855,
        53.917659759521484
      ],
      "type": "VEC3"
    },
    {
      "bufferView": 2,
      "byteOffset": 6113868,
      "componentType": 5126,
      "count": 7294,
      "max": [
        0.9977431297302246,
        0.9998720288276672,
        0.9999964237213135
      ],
      "min": [
        -0.9977431297302246,
        -0.9998720288276672,
        -0.9999964237213135
      ],
      "type": "VEC3"
    },
    {
      "bufferView": 0,
      "byteOffset": 1708804,
      "componentType": 5125,
      "count": 7458,
      "type": "SCALAR"
    },
    {
      "bufferView": 2,
      "byteOffset": 6201396,
      "componentType": 5126,
      "count": 840,
      "max": [
        34.78041076660156,
        12.753020286560059,
        58.17047882080078
      ],
      "min": [
        34.687931060791016,
        12.686339378356934,
        58.08256912231445
      ],
      "type": "VEC3"
    },
    {
      "bufferView": 2,
      "byteOffset": 6211476,
      "componentType": 5126,
      "count": 840,
      "max": [
        0.9973201155662537,
        0.8467698097229004,
        0.8891550302505493
      ],
      "min": [
        -0.9973201155662537,
        -0.8467698097229004,
        -0.8891550302505493
      ],
      "type": "VEC3"
    },
    {
      "bufferView": 0,
      "byteOffset": 1738636,
      "componentType": 5125,
      "count": 960,
      "type": "SCALAR"
    },
    {
      "bufferView": 2,
      "byteOffset": 6221556,
      "componentType": 5126,
      "count": 65533,
      "max": [
        33.44295883178711,
        12.953909873962402,
        59.0973014831543
      ],
      "min": [
        11.72400951385498,
        11.55182933807373,
        53.79465866088867
      ],
      "type": "VEC3"
    },
    {
      "bufferView": 2,
      "byteOffset": 7007952,
      "componentType": 5126,
      "count": 65533,
      "max": [
        0.9997771978378296,
        0.999862790107727,
        0.9999995827674866
      ],
      "min": [
        -0.9997771978378296,
        -0.999862790107727,
        -0.9999995827674866
      ],
      "type": "VEC3"
    },
    {
      "bufferView": 0,
      "byteOffset": 1742476,
      "componentType": 5125,
      "count": 65751,
      "type": "SCALAR"
    },
    {
      "bufferView": 2,
      "byteOffset": 7794348,
      "componentType": 5126,
      "count": 65532,
      "max": [
        33.60441970825195,
        12.953951835632324,
        59.17256164550781
      ],
      "min": [
        11.907118797302246,
        11.570830345153809,
        54.750370025634766
      ],
      "type": "VEC3"
    },
    {
      "bufferView": 2,
      "byteOffset": 8580732,
      "componentType": 5126,
      "count": 65532,
      "max": [
        0.9998227953910828,
        0.9999951124191284,
        0.9996733069419861
      ],
      "min": [
        -0.9998227953910828,
        -0.9999951124191284,
        -0.9996733069419861
      ],
      "type": "VEC3"
    },
    {
      "bufferView": 0,
      "byteOffset": 2005480,
      "componentType": 5125,
      "count": 65640,
      "type": "SCALAR"
    },
    {
      "bufferView": 2,
      "byteOffset": 9367116,
      "componentType": 5126,
      "count": 14379,
      "max": [
        31.930572509765625,
        12.851439476013184,
        59.092838287353516
      ],
      "min": [
        11.801318168640137,
        11.575469017028809,
        53.794639587402344
      ],
      "type": "VEC3"
    },
    {
      "bufferView": 2,
      "byteOffset": 9539664,
      "componentType": 5126,
      "count": 14379,
      "max": [
        0.9931848049163818,
        0.9999927282333374,
        0.9996498227119446
      ],
      "min": [
        -0.9931848049163818,
        -0.9999927282333374,
        -0.9996498227119446
      ],
      "type": "VEC3"
    },
    {
      "bufferView": 0,
      "byteOffset": 2268040,
      "componentType": 5125,
      "count": 14451,
      "type": "SCALAR"
    },
    {
      "bufferView": 2,
      "byteOffset": 9712212,
      "componentType": 5126,
      "count": 65533,
      "max": [
        32.1339111328125,
        13.066191673278809,
        59.550819396972656
      ],
      "min": [
        11.60636043548584,
        11.303221702575684,
        54.81684112548828
      ],
      "type": "VEC3"
    },
    {
      "bufferView": 2,
      "byteOffset": 10498608,
      "componentType": 5126,
      "count": 65533,
      "max": [
        0.9994949102401733,
        0.9999998807907104,
        0.9999861121177673
      ],
      "min": [
        -0.9994949102401733,
        -0.9999998807907104,
        -0.9999861121177673
      ],
      "type": "VEC3"
    },
    {
      "bufferView": 0,
      "byteOffset": 2325844,
      "componentType": 5125,
      "count": 66459,
      "type": "SCALAR"
    },
    {
      "bufferView": 2,
      "byteOffset": 11285004,
      "componentType": 5126,
      "count": 65532,
      "max": [
        32.124000549316406,
        13.066180229187012,
        59.55107879638672
      ],
      "min": [
        11.615218162536621,
        11.303328514099121,
        54.733619689941406
      ],
      "type": "VEC3"
    },
    {
      "bufferView": 2,
      "byteOffset": 12071388,
      "componentType": 5126,
      "count": 65532,
      "max": [
        0.9987936019897461,
        0.9987319111824036,
        0.9979037046432495
      ],
      "min": [
        -0.9987936019897461,
        -0.9987319111824036,
        -0.9979037046432495
      ],
      "type": "VEC3"
    },
    {
      "bufferView": 0,
      "byteOffset": 2591680,
      "componentType": 5125,
      "count": 66282,
      "type": "SCALAR"
    },
    {
      "bufferView": 2,
      "byteOffset": 12857772,
      "componentType": 5126,
      "count": 22321,
      "max": [
        32.10499954223633,
        12.893248558044434,
        59.54486846923828
      ],
      "min": [
        11.607760429382324,
        11.358672142028809,
        54.8385009765625
      ],
      "type": "VEC3"
    },
    {
      "bufferView": 2,
      "byteOffset": 13125624,
      "componentType": 5126,
      "count": 22321,
      "max": [
        0.9976316094398499,
        0.999782919883728,
        0.9999700784683228
      ],
      "min": [
        -0.9976316094398499,
        -0.999782919883728,
        -0.9999700784683228
      ],
      "type": "VEC3"
    },
    {
      "bufferView": 0,
      "byteOffset": 2856808,
      "componentType": 5125,
      "count": 22503,
      "type": "SCALAR"
    },
    {
      "bufferView": 2,
      "byteOffset": 13393476,
      "componentType": 5126,
      "count": 5480,
      "max": [
        33.597511291503906,
        12.917330741882324,
        58.14788055419922
      ],
      "min": [
        11.738459587097168,
        11.74619197845459,
        53.8231315612793
      ],
      "type": "VEC3"
    },
    {
      "bufferView": 2,
      "byteOffset": 13459236,
      "componentType": 5126,
      "count": 5480,
      "max": [
        0.9976000189781189,
        0.9998263716697693,
        0.9997764229774475
      ],
      "min": [
        -0.9976000189781189,
        -0.9998263716697693,
        -0.9997764229774475
      ],
      "type": "VEC3"
    },
    {
      "bufferView": 0,
      "byteOffset": 2946820,
      "componentType": 5125,
      "count": 5544,
      "type": "SCALAR"
    },
    {
      "bufferView": 2,
      "byteOffset": 13524996,
      "componentType": 5126,
      "count": 65533,
      "max": [
        36.27986145019531,
        14.25117015838623,
        59.303958892822266
      ],
      "min": [
        10.94629955291748,
        11.241621971130371,
        52.27008819580078
      ],
      "type": "VEC3"
    },
    {
      "bufferView": 2,
      "byteOffset": 14311392,
      "componentType": 5126,
      "count": 65533,
      "max": [
        0.9999117255210876,
        1.0,
        0.9999948143959045
      ],
      "min": [
        -0.9999117255210876,
        -1.0,
        -0.9999948143959045
      ],
      "type": "VEC3"
    },
    {
      "bufferView": 0,
      "byteOffset": 2968996,
      "componentType": 5125,
      "count": 73368,
      "type": "SCALAR"
    },
    {
      "bufferView": 2,
      "byteOffset": 15097788,
      "componentType": 5126,
      "count": 54696,
      "max": [
        36.27029037475586,
        14.1856107711792,
        59.276920318603516
      ],
      "min": [
        10.397368431091309,
        11.301371574401855,
        52.05937957763672
      ],
      "type": "VEC3"
    },
    {
      "bufferView": 2,
      "byteOffset": 15754140,
      "componentType": 5126,
      "count": 54696,
      "max": [
        0.9999729990959167,
        1.0,
        1.0
      ],
      "min": [
        -0.9999729990959167,
        -1.0,
        -1.0
      ],
      "type": "VEC3"
    },
    {
      "bufferView": 0,
      "byteOffset": 3262468,
      "componentType": 5125,
      "count": 60012,
      "type": "SCALAR"
    },
    {
      "bufferView": 2,
      "byteOffset": 16410492,
      "componentType": 5126,
      "count": 636,
      "max": [
        36.01116180419922,
        13.042948722839355,
        58.065521240234375
      ],
      "min": [
        11.951899528503418,
        11.374770164489746,
        54.127750396728516
      ],
      "type": "VEC3"
    },
    {
      "bufferView": 2,
      "byteOffset": 16418124,
      "componentType": 5126,
      "count": 636,
      "max": [
        0.9619029760360718,
        0.9998432993888855,
        0.9951868057250977
      ],
      "min": [
        -0.9619029760360718,
        -0.9998432993888855,
        -0.9951868057250977
      ],
      "type": "VEC3"
    },
    {
      "bufferView": 0,
      "byteOffset": 3502516,
      "componentType": 5125,
      "count": 654,
      "type": "SCALAR"
    },
    {
      "bufferView": 2,
      "byteOffset": 16425756,
      "componentType": 5126,
      "count": 51832,
      "max": [
        36.02804183959961,
        14.092909812927246,
        58.07632827758789
      ],
      "min": [
        32.71133041381836,
        11.398879051208496,
        56.708221435546875
      ],
      "type": "VEC3"
    },
    {
      "bufferView": 2,
      "byteOffset": 17047740,
      "componentType": 5126,
      "count": 51832,
      "max": [
        0.9942821264266968,
        1.0,
        0.9992620944976807
      ],
      "min": [
        -0.9942821264266968,
        -1.0,
        -0.9992620944976807
      ],
      "type": "VEC3"
    },
    {
      "bufferView": 1,
      "componentType": 5126,
      "count": 51832,
      "max": [
        64.39964294433594,
        87.15609741210938
      ],
      "min": [
        -64.38191986083984,
        -52.82719039916992
      ],
      "type": "VEC2"
    },
    {
      "bufferView": 0,
      "byteOffset": 3505132,
      "componentType": 5125,
      "count": 51954,
      "type": "SCALAR"
    },
    {
      "bufferView": 2,
      "byteOffset": 17669724,
      "componentType": 5126,
      "count": 336,
      "max": [
        32.433860778808594,
        13.047911643981934,
        57.53070068359375
      ],
      "min": [
        31.851760864257813,
        12.481749534606934,
        57.244789123535156
      ],
      "type": "VEC3"
    },
    {
      "bufferView": 2,
      "byteOffset": 17673756,
      "componentType": 5126,
      "count": 336,
      "max": [
        0.9838759899139404,
        1.0,
        0.9364699721336365
      ],
      "min": [
        -0.9838759899139404,
        -1.0,
        -0.9364699721336365
      ],
      "type": "VEC3"
    },
    {
      "bufferView": 1,
      "byteOffset": 414656,
      "componentType": 5126,
      "count": 336,
      "max": [
        53.58552932739258,
        57.53070068359375
      ],
      "min": [
        -53.58546829223633,
        -7.105426679974644e-14
      ],
      "type": "VEC2"
    },
    {
      "bufferView": 0,
      "byteOffset": 3712948,
      "componentType": 5125,
      "count": 480,
      "type": "SCALAR"
    },
    {
      "bufferView": 2,
      "byteOffset": 17677788,
      "componentType": 5126,
      "count": 96,
      "max": [
        32.42061996459961,
        13.047911643981934,
        57.45787048339844
      ],
      "min": [
        31.851760864257813,
        12.481749534606934,
        57.244789123535156
      ],
      "type": "VEC3"
    },
    {
      "bufferView": 2,
      "byteOffset": 17678940,
      "componentType": 5126,
      "count": 96,
      "max": [
        0.35078874230384827,
        2.5242359697585925e-05,
        0.9364711046218872
      ],
      "min": [
        -0.35078874230384827,
        -2.5242359697585925e-05,
        -0.9364711046218872
      ],
      "type": "VEC3"
    },
    {
      "bufferView": 1,
      "byteOffset": 417344,
      "componentType": 5126,
      "count": 96,
      "max": [
        1.0,
        1.0
      ],
      "min": [
        -5.684341886080802e-14,
        -1.421084963300432e-14
      ],
      "type": "VEC2"
    },
    {
      "bufferView": 0,
      "byteOffset": 3714868,
      "componentType": 5125,
      "count": 96,
      "type": "SCALAR"
    },
    {
      "bufferView": 2,
      "byteOffset": 17680092,
      "componentType": 5126,
      "count": 59692,
      "max": [
        13.510161399841309,
        14.686549186706543,
        55.13581085205078
      ],
      "min": [
        9.693488121032715,
        10.837199211120605,
        52.257080078125
      ],
      "type": "VEC3"
    },
    {
      "bufferView": 2,
      "byteOffset": 18396396,
      "componentType": 5126,
      "count": 59692,
      "max": [
        0.9816898703575134,
        0.9900507926940918,
        0.9989644885063171
      ],
      "min": [
        -0.9816898703575134,
        -0.9900507926940918,
        -0.9989644885063171
      ],
      "type": "VEC3"
    },
    {
      "bufferView": 0,
      "byteOffset": 3715252,
      "componentType": 5125,
      "count": 59868,
      "type": "SCALAR"
    },
    {
      "bufferView": 2,
      "byteOffset": 19112700,
      "componentType": 5126,
      "count": 23098,
      "max": [
        12.03290843963623,
        13.345309257507324,
        54.28020095825195
      ],
      "min": [
        9.765189170837402,
        10.958331108093262,
        53.22645950317383
      ],
      "type": "VEC3"
    },
    {
      "bufferView": 2,
      "byteOffset": 19389876,
      "componentType": 5126,
      "count": 23098,
      "max": [
        0.9718922972679138,
        0.9510868787765503,
        0.999944806098938
      ],
      "min": [
        -0.9718350172042847,
        -0.951079785823822,
        -0.9999442100524902
      ],
      "type": "VEC3"
    },
    {
      "bufferView": 0,
      "byteOffset": 3954724,
      "componentType": 5125,
      "count": 23100,
      "type": "SCALAR"
    },
    {
      "bufferView": 2,
      "byteOffset": 19667052,
      "componentType": 5126,
      "count": 59837,
      "max": [
        30.584529876708984,
        13.603899955749512,
        58.71683883666992
      ],
      "min": [
        9.82688045501709,
        11.0092191696167,
        6.251594186323928e-06
      ],
      "type": "VEC3"
    },
    {
      "bufferView": 2,
      "byteOffset": 20385096,
      "componentType": 5126,
      "count": 59837,
      "max": [
        1.0,
        1.0,
        1.0
      ],
      "min": [
        -1.0,
        -1.0,
        -1.0
      ],
      "type": "VEC3"
    },
    {
      "bufferView": 0,
      "byteOffset": 4047124,
      "componentType": 5125,
      "count": 65067,
      "type": "SCALAR"
    },
    {
      "bufferView": 2,
      "byteOffset": 21103140,
      "componentType": 5126,
      "count": 3570,
      "max": [
        11.08621883392334,
        12.727648735046387,
        53.94496154785156
      ],
      "min": [
        11.005858421325684,
        12.6472806930542,
        53.888179779052734
      ],
      "type": "VEC3"
    },
    {
      "bufferView": 2,
      "byteOffset": 21145980,
      "componentType": 5126,
      "count": 3570,
      "max": [
        0.7348418235778809,
        0.7349849939346313,
        0.9999948143959045
      ],
      "min": [
        -0.7348418235778809,
        -0.7349849939346313,
        -0.9999948143959045
      ],
      "type": "VEC3"
    },
    {
      "bufferView": 0,
      "byteOffset": 4307392,
      "componentType": 5125,
      "count": 3570,
      "type": "SCALAR"
    },
    {
      "bufferView": 2,
      "byteOffset": 21188820,
      "componentType": 5126,
      "count": 44572,
      "max": [
        27.387901306152344,
        13.693621635437012,
        58.658729553222656
      ],
      "min": [
        10.887240409851074,
        11.721579551696777,
        40.204010009765625
      ],
      "type": "VEC3"
    },
    {
      "bufferView": 2,
      "byteOffset": 21723684,
      "componentType": 5126,
      "count": 44572,
      "max": [
        1.0,
        1.0,
        1.0
      ],
      "min": [
        -1.0,
        -1.0,
        -1.0
      ],
      "type": "VEC3"
    },
    {
      "bufferView": 1,
      "byteOffset": 418112,
      "componentType": 5126,
      "count": 44572,
      "max": [
        2.0276060104370117,
        2.3707430362701416
      ],
      "min": [
        -2.029010057449341,
        -1.9161510467529297
      ],
      "type": "VEC2"
    },
    {
      "bufferView": 0,
      "byteOffset": 4321672,
      "componentType": 5125,
      "count": 49704,
      "type": "SCALAR"
    }
  ],
  "asset": {
    "extras": {
      "author": "The Street Light Man (https://sketchfab.com/thestreetlightman)",
      "license": "CC-BY-4.0 (http://creativecommons.org/licenses/by/4.0/)",
      "source": "https://sketchfab.com/3d-models/street-light-with-parking-lot-light-23c04b5799014b58aa2572a7142eb89d",
      "title": "Street light with parking lot light"
    },
    "generator": "Sketchfab-17.14.0",
    "version": "2.0"
  },
  "bufferViews": [
    {
      "buffer": 0,
      "byteLength": 4520488,
      "name": "floatBufferViews",
      "target": 34963
    },
    {
      "buffer": 0,
      "byteLength": 774688,
      "byteOffset": 4520488,
      "byteStride": 8,
      "name": "floatBufferViews",
      "target": 34962
    },
    {
      "buffer": 0,
      "byteLength": 22258548,
      "byteOffset": 5295176,
      "byteStride": 12,
      "name": "floatBufferViews",
      "target": 34962
    }
  ],
  "buffers": [
    {
      "byteLength": 27553724,
      "uri": "scene.bin"
    }
  ],
  "images": [
    {
      "uri": "textures/Material_13_baseColor.png"
    },
    {
      "uri": "textures/Material_14_baseColor.jpeg"
    },
    {
      "uri": "textures/Material_15_baseColor.png"
    },
    {
      "uri": "textures/Metal_04_1K_baseColor.png"
    }
  ],
  "materials": [
    {
      "name": "material",
      "pbrMetallicRoughness": {
        "metallicFactor": 0.0,
        "roughnessFactor": 0.6
      }
    },
    {
      "name": "material_0",
      "pbrMetallicRoughness": {
        "baseColorFactor": [
          0.635294,
          0.717647,
          0.776471,
          1.0
        ],
        "metallicFactor": 0.0,
        "roughnessFactor": 0.6
      }
    },
    {
      "name": "edge_color000255",
      "pbrMetallicRoughness": {
        "metallicFactor": 0.0,
        "roughnessFactor": 0.6
      }
    },
    {
      "name": "Regular_5",
      "pbrMetallicRoughness": {
        "baseColorFactor": [
          0.0,
          0.0,
          0.0,
          1.0
        ],
        "metallicFactor": 0.0,
        "roughnessFactor": 0.6
      }
    },
    {
      "name": "Metallic_0",
      "pbrMetallicRoughness": {
        "baseColorFactor": [
          0.909804,
          0.870588,
          0.870588,
          1.0
        ],
        "metallicFactor": 0.0,
        "roughnessFactor": 0.6
      }
    },
    {
      "name": "Regular_1",
      "pbrMetallicRoughness": {
        "baseColorFactor": [
          0.14902,
          0.145098,
          0.145098,
          1.0
        ],
        "metallicFactor": 0.0,
        "roughnessFactor": 0.6
      }
    },
    {
      "name": "Regular_0",
      "pbrMetallicRoughness": {
        "metallicFactor": 0.0,
        "roughnessFactor": 0.6
      }
    },
    {
      "name": "Regular_4",
      "pbrMetallicRoughness": {
        "baseColorFactor": [
          0.819608,
          0.819608,
          0.819608,
          1.0
        ],
        "metallicFactor": 0.0,
        "roughnessFactor": 0.6
      }
    },
    {
      "name": "Regular_3",
      "pbrMetallicRoughness": {
        "baseColorFactor": [
          0.215686,
          0.215686,
          0.215686,
          1.0
        ],
        "metallicFactor": 0.0,
        "roughnessFactor": 0.6
      }
    },
    {
      "name": "Translucent_0",
      "pbrMetallicRoughness": {
        "baseColorFactor": [
          0.94902,
          0.94902,
          0.952941,
          1.0
        ],
        "metallicFactor": 0.0,
        "roughnessFactor": 0.6
      }
    },
    {
      "name": "Regular_2",
      "pbrMetallicRoughness": {
        "baseColorFactor": [
          0.517647,
          0.517647,
          0.517647,
          1.0
        ],
        "metallicFactor": 0.0,
        "roughnessFactor": 0.6
      }
    },
    {
      "name": "Metallic_1",
      "pbrMetallicRoughness": {
        "baseColorFactor": [
          0.447059,
          0.117647,
          0.054902,
          1.0
        ],
        "metallicFactor": 0.0,
        "roughnessFactor": 0.6
      }
    },
    {
      "name": "Metallic_2",
      "pbrMetallicRoughness": {
        "baseColorFactor": [
          0.705882,
          0.443137,
          0.0235294,
          1.0
        ],
        "metallicFactor": 0.0,
        "roughnessFactor": 0.6
      }
    },
    {
      "name": "Regular_6",
      "pbrMetallicRoughness": {
        "baseColorFactor": [
          0.0,
          0.34902,
          0.803922,
          1.0
        ],
        "metallicFactor": 0.0,
        "roughnessFactor": 0.6
      }
    },
    {
      "name": "Metallic_3",
      "pbrMetallicRoughness": {
        "baseColorFactor": [
          0.698039,
          0.439216,
          0.0235294,
          1.0
        ],
        "metallicFactor": 0.0,
        "roughnessFactor": 0.6
      }
    },
    {
      "name": "BaseColor_0",
      "pbrMetallicRoughness": {
        "baseColorFactor": [
          0.737255,
          0.737255,
          0.737255,
          1.0
        ],
        "metallicFactor": 0.0,
        "roughnessFactor": 0.6
      }
    },
    {
      "name": "Material_19",
      "pbrMetallicRoughness": {
        "metallicFactor": 0.0,
        "roughnessFactor": 0.6
      }
    },
    {
      "alphaMode": "BLEND",
      "name": "Material_13",
      "pbrMetallicRoughness": {
        "baseColorFactor": [
          1.0,
          1.0,
          1.0,
          0.73
        ],
        "baseColorTexture": {
          "index": 0
        },
        "metallicFactor": 0.0,
        "roughnessFactor": 0.6
      }
    },
    {
      "name": "Material_14",
      "pbrMetallicRoughness": {
        "baseColorTexture": {
          "index": 1
        },
        "metallicFactor": 0.0,
        "roughnessFactor": 0.6
      }
    },
    {
      "name": "Material_15",
      "pbrMetallicRoughness": {
        "baseColorTexture": {
          "index": 2
        },
        "metallicFactor": 0.0,
        "roughnessFactor": 0.6
      }
    },
    {
      "name": "Regular_7",
      "pbrMetallicRoughness": {
        "baseColorFactor": [
          0.564706,
          0.564706,
          0.564706,
          1.0
        ],
        "metallicFactor": 0.0,
        "roughnessFactor": 0.6
      }
    },
    {
      "alphaMode": "BLEND",
      "name": "material_21",
      "pbrMetallicRoughness": {
        "baseColorFactor": [
          1.0,
          1.0,
          1.0,
          0.219608
        ],
        "metallicFactor": 0.0,
        "roughnessFactor": 0.6
      }
    },
    {
      "name": "Metallic_4",
      "pbrMetallicRoughness": {
        "baseColorFactor": [
          0.431372,
          0.380392,
          0.380392,
          1.0
        ],
        "metallicFactor": 0.0,
        "roughnessFactor": 0.6
      }
    },
    {
      "name": "Translucent_1",
      "pbrMetallicRoughness": {
        "baseColorFactor": [
          0.956863,
          0.960784,
          0.960784,
          1.0
        ],
        "metallicFactor": 0.0,
        "roughnessFactor": 0.6
      }
    },
    {
      "name": "Metal_04_1K",
      "pbrMetallicRoughness": {
        "baseColorTexture": {
          "index": 3
        },
        "metallicFactor": 0.0,
        "roughnessFactor": 0.6
      }
    }
  ],
  "meshes": [
    {
      "name": "Material2",
      "primitives": [
        {
          "attributes": {
            "NORMAL": 1,
            "POSITION": 0
          },
          "indices": 2,
          "material": 0,
          "mode": 4
        }
      ]
    },
    {
      "name": "Material3",
      "primitives": [
        {
          "attributes": {
            "NORMAL": 4,
            "POSITION": 3
          },
          "indices": 5,
          "material": 1,
          "mode": 4
        }
      ]
    },
    {
      "name": "Material2",
      "primitives": [
        {
          "attributes": {
            "POSITION": 6
          },
          "indices": 7,
          "material": 2,
          "mode": 1
        }
      ]
    },
    {
      "name": "Material3",
      "primitives": [
        {
          "attributes": {
            "POSITION": 8
          },
          "indices": 9,
          "material": 2,
          "mode": 1
        }
      ]
    },
    {
      "name": "Material2",
      "primitives": [
        {
          "attributes": {
            "NORMAL": 11,
            "POSITION": 10
          },
          "indices": 12,
          "material": 3,
          "mode": 4
        }
      ]
    },
    {
      "name": "Material2",
      "primitives": [
        {
          "attributes": {
            "NORMAL": 14,
            "POSITION": 13
          },
          "indices": 15,
          "material": 4,
          "mode": 4
        }
      ]
    },
    {
      "name": "Material2",
      "primitives": [
        {
          "attributes": {
            "NORMAL": 17,
            "POSITION": 16
          },
          "indices": 18,
          "material": 4,
          "mode": 4
        }
      ]
    },
    {
      "name": "Material2",
      "primitives": [
        {
          "attributes": {
            "NORMAL": 20,
            "POSITION": 19
          },
          "indices": 21,
          "material": 5,
          "mode": 4
        }
      ]
    },
    {
      "name": "Material2",
      "primitives": [
        {
          "attributes": {
            "NORMAL": 23,
            "POSITION": 22
          },
          "indices": 24,
          "material": 6,
          "mode": 4
        }
      ]
    },
    {
      "name": "Material2",
      "primitives": [
        {
          "attributes": {
            "NORMAL": 26,
            "POSITION": 25
          },
          "indices": 27,
          "material": 6,
          "mode": 4
        }
      ]
    },
    {
      "name": "Material2",
      "primitives": [
        {
          "attributes": {
            "NORMAL": 29,
            "POSITION": 28
          },
          "indices": 30,
          "material": 7,
          "mode": 4
        }
      ]
    },
    {
      "name": "Material2",
      "primitives": [
        {
          "attributes": {
            "NORMAL": 32,
            "POSITION": 31
          },
          "indices": 33,
          "material": 8,
          "mode": 4
        }
      ]
    },
    {
      "name": "Material2",
      "primitives": [
        {
          "attributes": {
            "NORMAL": 35,
            "POSITION": 34
          },
          "indices": 36,
          "material": 9,
          "mode": 4
        }
      ]
    },
    {
      "name": "Material2",
      "primitives": [
        {
          "attributes": {
            "NORMAL": 38,
            "POSITION": 37
          },
          "indices": 39,
          "material": 10,
          "mode": 4
        }
      ]
    },
    {
      "name": "Material2",
      "primitives": [
        {
          "attributes": {
            "NORMAL": 41,
            "POSITION": 40
          },
          "indices": 42,
          "material": 11,
          "mode": 4
        }
      ]
    },
    {
      "name": "Material2",
      "primitives": [
        {
          "attributes": {
            "NORMAL": 44,
            "POSITION": 43
          },
          "indices": 45,
          "material": 12,
          "mode": 4
        }
      ]
    },
    {
      "name": "Material2",
      "primitives": [
        {
          "attributes": {
            "NORMAL": 47,
            "POSITION": 46
          },
          "indices": 48,
          "material": 12,
          "mode": 4
        }
      ]
    },
    {
      "name": "Material2",
      "primitives": [
        {
          "attributes": {
            "NORMAL": 50,
            "POSITION": 49
          },
          "indices": 51,
          "material": 12,
          "mode": 4
        }
      ]
    },
    {
      "name": "Material2",
      "primitives": [
        {
          "attributes": {
            "NORMAL": 53,
            "POSITION": 52
          },
          "indices": 54,
          "material": 13,
          "mode": 4
        }
      ]
    },
    {
      "name": "Material2",
      "primitives": [
        {
          "attributes": {
            "NORMAL": 56,
            "POSITION": 55
          },
          "indices": 57,
          "material": 13,
          "mode": 4
        }
      ]
    },
    {
      "name": "Material2",
      "primitives": [
        {
          "attributes": {
            "NORMAL": 59,
            "POSITION": 58
          },
          "indices": 60,
          "material": 13,
          "mode": 4
        }
      ]
    },
    {
      "name": "Material2",
      "primitives": [
        {
          "attributes": {
            "NORMAL": 62,
            "POSITION": 61
          },
          "indices": 63,
          "material": 14,
          "mode": 4
        }
      ]
    },
    {
      "name": "Material2",
      "primitives": [
        {
          "attributes": {
            "NORMAL": 65,
            "POSITION": 64
          },
          "indices": 66,
          "material": 15,
          "mode": 4
        }
      ]
    },
    {
      "name": "Material2",
      "primitives": [
        {
          "attributes": {
            "NORMAL": 68,
            "POSITION": 67
          },
          "indices": 69,
          "material": 15,
          "mode": 4
        }
      ]
    },
    {
      "name": "Material2",
      "primitives": [
        {
          "attributes": {
            "NORMAL": 71,
            "POSITION": 70
          },
          "indices": 72,
          "material": 16,
          "mode": 4
        }
      ]
    },
    {
      "name": "Material2",
      "primitives": [
        {
          "attributes": {
            "NORMAL": 74,
            "POSITION": 73,
            "TEXCOORD_0": 75
          },
          "indices": 76,
          "material": 17,
          "mode": 4
        }
      ]
    },
    {
      "name": "Material2",
      "primitives": [
        {
          "attributes": {
            "NORMAL": 78,
            "POSITION": 77,
            "TEXCOORD_0": 79
          },
          "indices": 80,
          "material": 18,
          "mode": 4
        }
      ]
    },
    {
      "name": "Material2",
      "primitives": [
        {
          "attributes": {
            "NORMAL": 82,
            "POSITION": 81,
            "TEXCOORD_0": 83
          },
          "indices": 84,
          "material": 19,
          "mode": 4
        }
      ]
    },
    {
      "name": "Material2",
      "primitives": [
        {
          "attributes": {
            "NORMAL": 86,
            "POSITION": 85
          },
          "indices": 87,
          "material": 20,
          "mode": 4
        }
      ]
    },
    {
      "name": "Material3",
      "primitives": [
        {
          "attributes": {
            "NORMAL": 89,
            "POSITION": 88
          },
          "indices": 90,
          "material": 21,
          "mode": 4
        }
      ]
    },
    {
      "name": "Material2",
      "primitives": [
        {
          "attributes": {
            "NORMAL": 92,
            "POSITION": 91
          },
          "indices": 93,
          "material": 22,
          "mode": 4
        }
      ]
    },
    {
      "name": "Material2",
      "primitives": [
        {
          "attributes": {
            "NORMAL": 95,
            "POSITION": 94
          },
          "indices": 96,
          "material": 23,
          "mode": 4
        }
      ]
    },
    {
      "name": "Material3",
      "primitives": [
        {
          "attributes": {
            "NORMAL": 98,
            "POSITION": 97,
            "TEXCOORD_0": 99
          },
          "indices": 100,
          "material": 24,
          "mode": 4
        }
      ]
    }
  ],
  "nodes": [
    {
      "children": [
        1
      ],
      "matrix": [
        1.0,
        0.0,
        0.0,
        0.0,
        0.0,
        2.220446049250313e-16,
        -1.0,
        0.0,
        0.0,
        1.0,
        2.220446049250313e-16,
        0.0,
        0.0,
        0.0,
        0.0,
        1.0
      ],
      "name": "Sketchfab_model"
    },
    {
      "children": [
        2,
        3,
        4,
        5,
        6,
        7,
        8,
        9,
        10,
        11,
        12,
        13,
        14,
        15,
        16,
        17,
        18,
        19,
        20,
        21,
        22,
        23,
        24,
        25,
        26,
        27,
        28,
        29,
        30,
        31,
        32,
        33,
        34,
        35
      ],
      "name": "Collada visual scene group"
    },
    {
      "mesh": 0,
      "name": "Material2"
    },
    {
      "mesh": 1,
      "name": "Material3"
    },
    {
      "mesh": 2,
      "name": "Material2"
    },
    {
      "mesh": 3,
      "name": "Material3"
    },
    {
      "mesh": 4,
      "name": "Material2"
    },
    {
      "mesh": 5,
      "name": "Material2"
    },
    {
      "mesh": 6,
      "name": "Material2"
    },
    {
      "mesh": 7,
      "name": "Material2"
    },
    {
      "mesh": 8,
      "name": "Material2"
    },
    {
      "mesh": 9,
      "name": "Material2"
    },
    {
      "mesh": 10,
      "name": "Material2"
    },
    {
      "mesh": 11,
      "name": "Material2"
    },
    {
      "mesh": 12,
      "name": "Material2"
    },
    {
      "mesh": 13,
      "name": "Material2"
    },
    {
      "mesh": 14,
      "name": "Material2"
    },
    {
      "mesh": 15,
      "name": "Material2"
    },
    {
      "mesh": 16,
      "name": "Material2"
    },
    {
      "mesh": 17,
      "name": "Material2"
    },
    {
      "mesh": 18,
      "name": "Material2"
    },
    {
      "mesh": 19,
      "name": "Material2"
    },
    {
      "mesh": 20,
      "name": "Material2"
    },
    {
      "mesh": 21,
      "name": "Material2"
    },
    {
      "mesh": 22,
      "name": "Material2"
    },
    {
      "mesh": 23,
      "name": "Material2"
    },
    {
      "mesh": 24,
      "name": "Material2"
    },
    {
      "mesh": 25,
      "name": "Material2"
    },
    {
      "mesh": 26,
      "name": "Material2"
    },
    {
      "mesh": 27,
      "name": "Material2"
    },
    {
      "mesh": 28,
      "name": "Material2"
    },
    {
      "mesh": 29,
      "name": "Material3"
    },
    {
      "mesh": 30,
      "name": "Material2"
    },
    {
      "mesh": 31,
      "name": "Material2"
    },
    {
      "mesh": 32,
      "name": "Material3"
    },
    {
      "children": [
        36
      ],
      "name": "SketchUp"
    },
    {
      "children": [
        37
      ],
      "matrix": [
        0.9916227,
        0.1291679,
        -6.938894e-18,
        0.0,
        0.02191162,
        -0.1682156,
        0.9855067,
        0.0,
        0.1272959,
        -0.9772508,
        -0.1696367,
        0.0,
        29.29021,
        -29.66309,
        47.90646,
        1.0
      ],
      "name": "skp_camera_Last_Saved_SketchUp_View"
    },
    {
      "name": "ID1"
    }
  ],
  "samplers": [
    {
      "magFilter": 9729,
      "minFilter": 9987,
      "wrapS": 10497,
      "wrapT": 10497
    }
  ],
  "scene": 0,
  "scenes": [
    {
      "name": "Sketchfab_Scene",
      "nodes": [
        0
      ]
    }
  ],
  "textures": [
    {
      "sampler": 0,
      "source": 0
    },
    {
      "sampler": 0,
      "source": 1
    },
    {
      "sampler": 0,
      "source": 2
    },
    {
      "sampler": 0,
      "source": 3
    }
  ]
}
