{"images":[{"uri":"FaraZad_diff.jpg","name":"FaraZad_diff.jpg"},{"uri":"AudiQ8Nomer_diff.JPG","name":"AudiQ8Nomer_diff.JPG"},{"uri":"Shina_Bump.jpg","name":"Shina_Bump.jpg"}],"accessors":[{"componentType":5123,"bufferView":0,"count":29196,"type":"SCALAR","byteOffset":0},{"componentType":5123,"bufferView":0,"count":17520,"type":"SCALAR","byteOffset":58392},{"componentType":5123,"bufferView":0,"count":21867,"type":"SCALAR","byteOffset":93432},{"componentType":5123,"bufferView":0,"count":6900,"type":"SCALAR","byteOffset":137168},{"componentType":5123,"bufferView":0,"count":11145,"type":"SCALAR","byteOffset":150968},{"componentType":5123,"bufferView":0,"count":588,"type":"SCALAR","byteOffset":173260},{"componentType":5123,"bufferView":0,"count":5376,"type":"SCALAR","byteOffset":174436},{"componentType":5123,"bufferView":0,"count":7248,"type":"SCALAR","byteOffset":185188},{"componentType":5123,"bufferView":0,"count":3906,"type":"SCALAR","byteOffset":199684},{"componentType":5123,"bufferView":0,"count":2772,"type":"SCALAR","byteOffset":207496},{"componentType":5123,"bufferView":0,"count":1188,"type":"SCALAR","byteOffset":213040},{"componentType":5123,"bufferView":0,"count":552,"type":"SCALAR","byteOffset":215416},{"componentType":5123,"bufferView":0,"count":450,"type":"SCALAR","byteOffset":216520},{"componentType":5123,"bufferView":0,"count":1056,"type":"SCALAR","byteOffset":217420},{"componentType":5123,"bufferView":0,"count":144,"type":"SCALAR","byteOffset":219532},{"componentType":5123,"bufferView":0,"count":240,"type":"SCALAR","byteOffset":219820},{"componentType":5123,"bufferView":0,"count":360,"type":"SCALAR","byteOffset":220300},{"componentType":5123,"bufferView":0,"count":24,"type":"SCALAR","byteOffset":221020},{"componentType":5123,"bufferView":0,"count":228,"type":"SCALAR","byteOffset":221068},{"componentType":5123,"bufferView":0,"count":12,"type":"SCALAR","byteOffset":221524},{"componentType":5123,"bufferView":0,"count":2184,"type":"SCALAR","byteOffset":221548},{"componentType":5123,"bufferView":0,"count":420,"type":"SCALAR","byteOffset":225916},{"componentType":5123,"bufferView":0,"count":1038,"type":"SCALAR","byteOffset":226756},{"componentType":5123,"bufferView":0,"count":354,"type":"SCALAR","byteOffset":228832},{"componentType":5123,"bufferView":0,"count":240,"type":"SCALAR","byteOffset":229540},{"componentType":5123,"bufferView":0,"count":3912,"type":"SCALAR","byteOffset":230020},{"componentType":5123,"bufferView":0,"count":3912,"type":"SCALAR","byteOffset":237844},{"componentType":5123,"bufferView":0,"count":10878,"type":"SCALAR","byteOffset":245668},{"componentType":5123,"bufferView":0,"count":10518,"type":"SCALAR","byteOffset":267424},{"componentType":5123,"bufferView":0,"count":1800,"type":"SCALAR","byteOffset":288460},{"componentType":5123,"bufferView":0,"count":1800,"type":"SCALAR","byteOffset":292060},{"componentType":5123,"bufferView":0,"count":1080,"type":"SCALAR","byteOffset":295660},{"componentType":5123,"bufferView":0,"count":1080,"type":"SCALAR","byteOffset":297820},{"componentType":5126,"max":[2.4936017990112305,1.7173315286636353,1.0363874435424805],"bufferView":1,"count":6150,"type":"VEC3","min":[-2.485701084136963,0.24686779081821442,-1.0363878011703491],"byteOffset":0},{"componentType":5126,"bufferView":1,"count":6150,"type":"VEC3","byteOffset":12},{"componentType":5126,"bufferView":1,"count":6150,"type":"VEC2","byteOffset":24},{"componentType":5126,"max":[2.4928767681121826,1.6883580684661865,1.0061081647872925],"bufferView":2,"count":3526,"type":"VEC3","min":[-2.5016705989837646,0.34876540303230286,-0.9237996935844421],"byteOffset":0},{"componentType":5126,"bufferView":2,"count":3526,"type":"VEC3","byteOffset":12},{"componentType":5126,"bufferView":2,"count":3526,"type":"VEC2","byteOffset":24},{"componentType":5126,"max":[2.4898910522460938,1.5849334001541138,1.0357807874679565],"bufferView":3,"count":5903,"type":"VEC3","min":[-2.4399771690368652,0.3894217908382416,-1.0357812643051147],"byteOffset":0},{"componentType":5126,"bufferView":3,"count":5903,"type":"VEC3","byteOffset":12},{"componentType":5126,"bufferView":3,"count":5903,"type":"VEC2","byteOffset":24},{"componentType":5126,"max":[0.4591526687145233,1.4406408071517944,0.675435483455658],"bufferView":4,"count":1980,"type":"VEC3","min":[-1.3245594501495361,0.5227546691894531,-0.6750558614730835],"byteOffset":0},{"componentType":5126,"bufferView":4,"count":1980,"type":"VEC3","byteOffset":12},{"componentType":5126,"bufferView":4,"count":1980,"type":"VEC2","byteOffset":24},{"componentType":5126,"max":[2.4748377799987793,1.5970240831375122,0.9912281632423401],"bufferView":5,"count":2633,"type":"VEC3","min":[-2.4976675510406494,0.24325744807720184,-1.0061088800430298],"byteOffset":0},{"componentType":5126,"bufferView":5,"count":2633,"type":"VEC3","byteOffset":12},{"componentType":5126,"bufferView":5,"count":2633,"type":"VEC2","byteOffset":24},{"componentType":5126,"max":[2.4558684825897217,0.8538301587104797,0.3894895017147064],"bufferView":6,"count":184,"type":"VEC3","min":[2.4195876121520996,0.7925469875335693,-0.3894895911216736],"byteOffset":0},{"componentType":5126,"bufferView":6,"count":184,"type":"VEC3","byteOffset":12},{"componentType":5126,"bufferView":6,"count":184,"type":"VEC2","byteOffset":24},{"componentType":5126,"max":[1.670457363128662,0.5513624548912048,0.8652317523956299],"bufferView":7,"count":904,"type":"VEC3","min":[-1.647878885269165,0.2240707129240036,-0.8646681308746338],"byteOffset":0},{"componentType":5126,"bufferView":7,"count":904,"type":"VEC3","byteOffset":12},{"componentType":5126,"bufferView":7,"count":904,"type":"VEC2","byteOffset":24},{"componentType":5126,"max":[1.4842283725738525,0.5605217814445496,0.8811175227165222],"bufferView":8,"count":1920,"type":"VEC3","min":[-1.6587464809417725,0.2731839418411255,-0.8805539011955261],"byteOffset":0},{"componentType":5126,"bufferView":8,"count":1920,"type":"VEC3","byteOffset":12},{"componentType":5126,"bufferView":8,"count":1920,"type":"VEC2","byteOffset":24},{"componentType":5126,"max":[2.47947096824646,0.9273562431335449,0.6993578672409058],"bufferView":9,"count":775,"type":"VEC3","min":[-2.4928040504455566,0.26116669178009033,-0.6993582248687744],"byteOffset":0},{"componentType":5126,"bufferView":9,"count":775,"type":"VEC3","byteOffset":12},{"componentType":5126,"bufferView":9,"count":775,"type":"VEC2","byteOffset":24},{"componentType":5126,"max":[2.386604070663452,1.593355655670166,0.9324256181716919],"bufferView":10,"count":836,"type":"VEC3","min":[-0.22899429500102997,0.7757312655448914,-0.9324256777763367],"byteOffset":0},{"componentType":5126,"bufferView":10,"count":836,"type":"VEC3","byteOffset":12},{"componentType":5126,"bufferView":10,"count":836,"type":"VEC2","byteOffset":24},{"componentType":5126,"max":[-2.051140785217285,1.1478047370910645,0.9618700742721558],"bufferView":11,"count":236,"type":"VEC3","min":[-2.4112977981567383,0.9856659770011902,-0.9618703722953796],"byteOffset":0},{"componentType":5126,"bufferView":11,"count":236,"type":"VEC3","byteOffset":12},{"componentType":5126,"bufferView":11,"count":236,"type":"VEC2","byteOffset":24},{"componentType":5126,"max":[-2.2387046813964844,0.6800500154495239,0.9463223218917847],"bufferView":12,"count":112,"type":"VEC3","min":[-2.453711986541748,0.6260825991630554,-0.9463226199150085],"byteOffset":0},{"componentType":5126,"bufferView":12,"count":112,"type":"VEC3","byteOffset":12},{"componentType":5126,"bufferView":12,"count":112,"type":"VEC2","byteOffset":24},{"componentType":5126,"max":[2.415231943130493,0.8798226714134216,0.9292693138122559],"bufferView":13,"count":136,"type":"VEC3","min":[-2.472524881362915,0.34756267070770264,-0.9292696714401245],"byteOffset":0},{"componentType":5126,"bufferView":13,"count":136,"type":"VEC3","byteOffset":12},{"componentType":5126,"bufferView":13,"count":136,"type":"VEC2","byteOffset":24},{"componentType":5126,"max":[-0.24878554046154022,1.6096110343933105,0.8415547013282776],"bufferView":14,"count":290,"type":"VEC3","min":[-2.264770269393921,1.199991226196289,-0.8415547013282776],"byteOffset":0},{"componentType":5126,"bufferView":14,"count":290,"type":"VEC3","byteOffset":12},{"componentType":5126,"bufferView":14,"count":290,"type":"VEC2","byteOffset":24},{"componentType":5126,"max":[2.4846391677856445,0.9890387654304504,0.25973188877105713],"bufferView":15,"count":40,"type":"VEC3","min":[-2.4278886318206787,0.529768705368042,-0.2597317397594452],"byteOffset":0},{"componentType":5126,"bufferView":15,"count":40,"type":"VEC3","byteOffset":12},{"componentType":5126,"bufferView":15,"count":40,"type":"VEC2","byteOffset":24},{"componentType":5126,"max":[2.3792521953582764,0.9722066521644592,0.9248475432395935],"bufferView":16,"count":80,"type":"VEC3","min":[1.9501792192459106,0.8469451069831848,-0.9248475432395935],"byteOffset":0},{"componentType":5126,"bufferView":16,"count":80,"type":"VEC3","byteOffset":12},{"componentType":5126,"bufferView":16,"count":80,"type":"VEC2","byteOffset":24},{"componentType":5126,"max":[2.2923896312713623,0.968530535697937,0.9033845067024231],"bufferView":17,"count":82,"type":"VEC3","min":[1.9501792192459106,0.84980708360672,-0.9033845067024231],"byteOffset":0},{"componentType":5126,"bufferView":17,"count":82,"type":"VEC3","byteOffset":12},{"componentType":5126,"bufferView":17,"count":82,"type":"VEC2","byteOffset":24},{"componentType":5126,"max":[0.6829459071159363,1.2199785709381104,1.0360584259033203],"bufferView":18,"count":12,"type":"VEC3","min":[0.5452617406845093,1.2042495012283325,-1.036058783531189],"byteOffset":0},{"componentType":5126,"bufferView":18,"count":12,"type":"VEC3","byteOffset":12},{"componentType":5126,"bufferView":18,"count":12,"type":"VEC2","byteOffset":24},{"componentType":5126,"max":[0.6390029191970825,1.5632811784744263,1.0240824222564697],"bufferView":19,"count":64,"type":"VEC3","min":[0.36256012320518494,1.1649292707443237,-1.0240827798843384],"byteOffset":0},{"componentType":5126,"bufferView":19,"count":64,"type":"VEC3","byteOffset":12},{"componentType":5126,"bufferView":19,"count":64,"type":"VEC2","byteOffset":24},{"componentType":5126,"max":[-1.838044285774231,1.5596407651901245,0.24334518611431122],"bufferView":20,"count":6,"type":"VEC3","min":[-1.87376868724823,1.5341311693191528,-0.24334578216075897],"byteOffset":0},{"componentType":5126,"bufferView":20,"count":6,"type":"VEC3","byteOffset":12},{"componentType":5126,"bufferView":20,"count":6,"type":"VEC2","byteOffset":24},{"componentType":5126,"max":[0.5029376745223999,1.292691946029663,-0.21481291949748993],"bufferView":21,"count":360,"type":"VEC3","min":[0.33602461218833923,0.966770589351654,-0.5914631485939026],"byteOffset":0},{"componentType":5126,"bufferView":21,"count":360,"type":"VEC3","byteOffset":12},{"componentType":5126,"bufferView":21,"count":360,"type":"VEC2","byteOffset":24},{"componentType":5126,"max":[2.4631752967834473,0.8897134065628052,0.6094563007354736],"bufferView":22,"count":88,"type":"VEC3","min":[-2.404650926589966,0.7760059833526611,0.2795296311378479],"byteOffset":0},{"componentType":5126,"bufferView":22,"count":88,"type":"VEC3","byteOffset":12},{"componentType":5126,"bufferView":22,"count":88,"type":"VEC2","byteOffset":24},{"componentType":5126,"max":[2.372013568878174,0.9525367617607117,0.8968536853790283],"bufferView":23,"count":542,"type":"VEC3","min":[1.989789366722107,0.8475381135940552,-0.8968541026115417],"byteOffset":0},{"componentType":5126,"bufferView":23,"count":542,"type":"VEC3","byteOffset":12},{"componentType":5126,"bufferView":23,"count":542,"type":"VEC2","byteOffset":24},{"componentType":5126,"max":[2.371122121810913,0.951110303401947,0.8968536853790283],"bufferView":24,"count":186,"type":"VEC3","min":[1.989789366722107,0.8475381135940552,-0.8968541026115417],"byteOffset":0},{"componentType":5126,"bufferView":24,"count":186,"type":"VEC3","byteOffset":12},{"componentType":5126,"bufferView":24,"count":186,"type":"VEC2","byteOffset":24},{"componentType":5126,"max":[1.2186968326568604,1.587096929550171,0.760768711566925],"bufferView":25,"count":60,"type":"VEC3","min":[0.38935843110084534,1.0848711729049683,-0.7607693076133728],"byteOffset":0},{"componentType":5126,"bufferView":25,"count":60,"type":"VEC3","byteOffset":12},{"componentType":5126,"bufferView":25,"count":60,"type":"VEC2","byteOffset":24},{"componentType":5126,"max":[0.31847667694091797,0.3183034360408783,0.9808350801467896],"bufferView":26,"count":884,"type":"VEC3","min":[-0.3183237314224243,-0.31830331683158875,-0.9808350801467896],"byteOffset":0},{"componentType":5126,"bufferView":26,"count":884,"type":"VEC3","byteOffset":12},{"componentType":5126,"bufferView":26,"count":884,"type":"VEC2","byteOffset":24},{"componentType":5126,"max":[0.31785887479782104,0.3183034062385559,1.0110887289047241],"bufferView":27,"count":884,"type":"VEC3","min":[-0.3178582787513733,-0.3183033764362335,-1.0110887289047241],"byteOffset":0},{"componentType":5126,"bufferView":27,"count":884,"type":"VEC3","byteOffset":12},{"componentType":5126,"bufferView":27,"count":884,"type":"VEC2","byteOffset":24},{"componentType":5126,"max":[0.31847667694091797,0.3183034360408783,0.9807305932044983],"bufferView":28,"count":2342,"type":"VEC3","min":[-0.3183237314224243,-0.31830331683158875,-0.9807307124137878],"byteOffset":0},{"componentType":5126,"bufferView":28,"count":2342,"type":"VEC3","byteOffset":12},{"componentType":5126,"bufferView":28,"count":2342,"type":"VEC2","byteOffset":24},{"componentType":5126,"max":[0.31785887479782104,0.3183034062385559,1.010984182357788],"bufferView":29,"count":2282,"type":"VEC3","min":[-0.3178582787513733,-0.3183033764362335,-1.0109843015670776],"byteOffset":0},{"componentType":5126,"bufferView":29,"count":2282,"type":"VEC3","byteOffset":12},{"componentType":5126,"bufferView":29,"count":2282,"type":"VEC2","byteOffset":24},{"componentType":5126,"max":[0.40076419711112976,0.4008481502532959,0.9843161702156067],"bufferView":30,"count":420,"type":"VEC3","min":[-0.4007531702518463,-0.40084803104400635,-0.9843162298202515],"byteOffset":0},{"componentType":5126,"bufferView":30,"count":420,"type":"VEC3","byteOffset":12},{"componentType":5126,"bufferView":30,"count":420,"type":"VEC2","byteOffset":24},{"componentType":5126,"max":[0.4002883732318878,0.40084806084632874,1.014569878578186],"bufferView":31,"count":420,"type":"VEC3","min":[-0.40028777718544006,-0.40084806084632874,-1.014569878578186],"byteOffset":0},{"componentType":5126,"bufferView":31,"count":420,"type":"VEC3","byteOffset":12},{"componentType":5126,"bufferView":31,"count":420,"type":"VEC2","byteOffset":24},{"componentType":5126,"max":[0.4070358872413635,0.40713950991630554,0.975932776927948],"bufferView":32,"count":248,"type":"VEC3","min":[-0.40703561902046204,-0.4071394205093384,-0.9759328961372375],"byteOffset":0},{"componentType":5126,"bufferView":32,"count":248,"type":"VEC3","byteOffset":12},{"componentType":5126,"bufferView":32,"count":248,"type":"VEC2","byteOffset":24},{"componentType":5126,"max":[0.4065707325935364,0.4071394205093384,1.0061863660812378],"bufferView":33,"count":248,"type":"VEC3","min":[-0.40657010674476624,-0.40713945031166077,-1.0061864852905273],"byteOffset":0},{"componentType":5126,"bufferView":33,"count":248,"type":"VEC3","byteOffset":12},{"componentType":5126,"bufferView":33,"count":248,"type":"VEC2","byteOffset":24}],"textures":[{"source":0,"sampler":0},{"source":1,"sampler":0},{"source":2,"sampler":0}],"buffers":[{"byteLength":1414636,"uri":"buffer.bin"}],"bufferViews":[{"byteLength":299980,"target":34963,"byteOffset":0,"buffer":0},{"byteLength":196800,"byteStride":32,"target":34962,"byteOffset":299980,"buffer":0},{"byteLength":112832,"byteStride":32,"target":34962,"byteOffset":496780,"buffer":0},{"byteLength":188896,"byteStride":32,"target":34962,"byteOffset":609612,"buffer":0},{"byteLength":63360,"byteStride":32,"target":34962,"byteOffset":798508,"buffer":0},{"byteLength":84256,"byteStride":32,"target":34962,"byteOffset":861868,"buffer":0},{"byteLength":5888,"byteStride":32,"target":34962,"byteOffset":946124,"buffer":0},{"byteLength":28928,"byteStride":32,"target":34962,"byteOffset":952012,"buffer":0},{"byteLength":61440,"byteStride":32,"target":34962,"byteOffset":980940,"buffer":0},{"byteLength":24800,"byteStride":32,"target":34962,"byteOffset":1042380,"buffer":0},{"byteLength":26752,"byteStride":32,"target":34962,"byteOffset":1067180,"buffer":0},{"byteLength":7552,"byteStride":32,"target":34962,"byteOffset":1093932,"buffer":0},{"byteLength":3584,"byteStride":32,"target":34962,"byteOffset":1101484,"buffer":0},{"byteLength":4352,"byteStride":32,"target":34962,"byteOffset":1105068,"buffer":0},{"byteLength":9280,"byteStride":32,"target":34962,"byteOffset":1109420,"buffer":0},{"byteLength":1280,"byteStride":32,"target":34962,"byteOffset":1118700,"buffer":0},{"byteLength":2560,"byteStride":32,"target":34962,"byteOffset":1119980,"buffer":0},{"byteLength":2624,"byteStride":32,"target":34962,"byteOffset":1122540,"buffer":0},{"byteLength":384,"byteStride":32,"target":34962,"byteOffset":1125164,"buffer":0},{"byteLength":2048,"byteStride":32,"target":34962,"byteOffset":1125548,"buffer":0},{"byteLength":192,"byteStride":32,"target":34962,"byteOffset":1127596,"buffer":0},{"byteLength":11520,"byteStride":32,"target":34962,"byteOffset":1127788,"buffer":0},{"byteLength":2816,"byteStride":32,"target":34962,"byteOffset":1139308,"buffer":0},{"byteLength":17344,"byteStride":32,"target":34962,"byteOffset":1142124,"buffer":0},{"byteLength":5952,"byteStride":32,"target":34962,"byteOffset":1159468,"buffer":0},{"byteLength":1920,"byteStride":32,"target":34962,"byteOffset":1165420,"buffer":0},{"byteLength":28288,"byteStride":32,"target":34962,"byteOffset":1167340,"buffer":0},{"byteLength":28288,"byteStride":32,"target":34962,"byteOffset":1195628,"buffer":0},{"byteLength":74944,"byteStride":32,"target":34962,"byteOffset":1223916,"buffer":0},{"byteLength":73024,"byteStride":32,"target":34962,"byteOffset":1298860,"buffer":0},{"byteLength":13440,"byteStride":32,"target":34962,"byteOffset":1371884,"buffer":0},{"byteLength":13440,"byteStride":32,"target":34962,"byteOffset":1385324,"buffer":0},{"byteLength":7936,"byteStride":32,"target":34962,"byteOffset":1398764,"buffer":0},{"byteLength":7936,"byteStride":32,"target":34962,"byteOffset":1406700,"buffer":0}],"samplers":[{"magFilter":9729,"minFilter":9987}],"scene":0,"nodes":[{"children":[1],"name":"RootNode","translation":[5.001144766807557,0.01942291597335205,-0.00000002722691339052119]},{"rotation":[-0.70710676908493,0,0,0.70710676908493],"children":[2],"name":"Dummy001"},{"rotation":[0.707106828689575,0,0,0.707106709480286],"children":[3,4],"name":"AudiQ8","translation":[-4.99711036682129,0,0],"mesh":0},{"name":"front wheels","translation":[1.5056459903717,0.387716680765152,0.0008171844528988],"mesh":1},{"name":"rear wheels","translation":[-1.4842324256897,0.387716680765152,0.000000127567801655459],"mesh":2}],"materials":[{"pbrMetallicRoughness":{"roughnessFactor":0.64,"baseColorFactor":[0.0697270844425988,0.22331040834112742,0.25084023643640047,1],"metallicFactor":0.69},"extensions":{"KHR_materials_specular":{"specularFactor":0.3}},"name":"vray JP_Paint_Sterling_Grey","doubleSided":true},{"pbrMetallicRoughness":{"roughnessFactor":0.5,"baseColorFactor":[0.29321614913237454,0.29321614913237454,0.29321614913237454,1],"metallicFactor":0.76},"extensions":{"KHR_materials_specular":{"specularFactor":0.3}},"name":"vray Chrom"},{"pbrMetallicRoughness":{"roughnessFactor":0.800000011920929,"baseColorFactor":[0.03287591694838383,0.028991186547107816,0.028991186547107816,1],"metallicFactor":0.200000002980232},"extensions":{"KHR_materials_specular":{"specularFactor":0.3}},"name":"vray 05 - Default"},{"pbrMetallicRoughness":{"roughnessFactor":0.800000011920929,"baseColorFactor":[0.0137254912406206,0.0137254912406206,0.0137254912406206,1],"metallicFactor":0.200000002980232},"extensions":{"KHR_materials_specular":{"specularFactor":0.3}},"name":"vray Kresla"},{"pbrMetallicRoughness":{"roughnessFactor":0.800000011920929,"baseColorFactor":[0.03287591694838383,0.03287591694838383,0.03287591694838383,1],"metallicFactor":0.200000002980232},"extensions":{"KHR_materials_specular":{"specularFactor":0.3}},"name":"vray 01 - Default"},{"pbrMetallicRoughness":{"roughnessFactor":0.800000011920929,"baseColorFactor":[0,0,0,1],"metallicFactor":0.200000002980232},"extensions":{"KHR_materials_specular":{"specularFactor":0.3}},"name":"vray BlackGlass"},{"pbrMetallicRoughness":{"roughnessFactor":0.800000011920929,"baseColorFactor":[0.0356862768530846,0.0356862768530846,0.0356862768530846,1],"metallicFactor":0.200000002980232},"extensions":{"KHR_materials_specular":{"specularFactor":0.3}},"name":"vray Disk"},{"pbrMetallicRoughness":{"roughnessFactor":0.800000011920929,"baseColorFactor":[0.00823529530316591,0.00823529530316591,0.00823529530316591,1],"metallicFactor":0.200000002980232},"extensions":{"KHR_materials_specular":{"specularFactor":0.3}},"name":"vray Tormoz"},{"pbrMetallicRoughness":{"roughnessFactor":0.800000011920929,"baseColorFactor":[0.0470588319003582,0.0470588319003582,0.0470588319003582,1],"metallicFactor":0.200000002980232},"extensions":{"KHR_materials_specular":{"specularFactor":0.3}},"name":"vray JP_Paint_Sterling_Grey2"},{"pbrMetallicRoughness":{"roughnessFactor":0.800000011920929,"baseColorFactor":[0.10114516420959989,0.18698850875884424,0.348864834082879,0.59],"metallicFactor":0.200000002980232},"extensions":{"KHR_materials_specular":{"specularFactor":0.3}},"name":"vray FaraGlass","alphaMode":"BLEND"},{"pbrMetallicRoughness":{"roughnessFactor":0.800000011920929,"baseColorFactor":[1,1,1,1],"baseColorTexture":{"index":0},"metallicFactor":0.200000002980232},"alphaCutoff":0.01,"extensions":{"KHR_materials_specular":{"specularFactor":0.3}},"name":"FaraZad","alphaMode":"BLEND"},{"pbrMetallicRoughness":{"roughnessFactor":0.800000011920929,"baseColorFactor":[0.13609854973720245,0.37361502464620194,0.5417983559501369,1],"metallicFactor":0.200000002980232},"alphaCutoff":0.01,"extensions":{"KHR_materials_specular":{"specularFactor":0.3}},"name":"vray FaraZad2","alphaMode":"BLEND"},{"pbrMetallicRoughness":{"roughnessFactor":0.800000011920929,"baseColorFactor":[0.0796078518033028,0.0796078518033028,0.0796078518033028,1],"metallicFactor":0.200000002980232},"extensions":{"KHR_materials_specular":{"specularFactor":0.3}},"name":"Resh"},{"pbrMetallicRoughness":{"roughnessFactor":0.800000011920929,"baseColorFactor":[0.0697270844425988,0.2631747163984916,0.505432468828216,0.46],"metallicFactor":0.200000002980232},"extensions":{"KHR_materials_specular":{"specularFactor":0.3}},"name":"vray GlassMate","alphaMode":"BLEND"},{"pbrMetallicRoughness":{"roughnessFactor":0.800000011920929,"baseColorFactor":[1,1,1,1],"baseColorTexture":{"index":1},"metallicFactor":0.200000002980232},"extensions":{"KHR_materials_specular":{"specularFactor":0.3}},"name":"vray Nomer"},{"pbrMetallicRoughness":{"roughnessFactor":0.800000011920929,"baseColorFactor":[0.0274509824812412,0.0274509824812412,0.0274509824812412,1],"metallicFactor":0.200000002980232},"extensions":{"KHR_materials_specular":{"specularFactor":0.3}},"name":"vray PlasticMate"},{"pbrMetallicRoughness":{"roughnessFactor":0.800000011920929,"baseColorFactor":[0.350000023841858,0.350000023841858,0.350000023841858,1],"metallicFactor":0.200000002980232},"extensions":{"KHR_materials_specular":{"specularFactor":0.3}},"name":"FaraPerIn"},{"pbrMetallicRoughness":{"roughnessFactor":0.800000011920929,"baseColorFactor":[0.350000023841858,0.350000023841858,0.350000023841858,1],"metallicFactor":0.200000002980232},"extensions":{"KHR_materials_specular":{"specularFactor":0.3}},"name":"vray 20 - Default"},{"pbrMetallicRoughness":{"roughnessFactor":0.800000011920929,"baseColorFactor":[0,0,0,1],"metallicFactor":0.200000002980232},"extensions":{"KHR_materials_specular":{"specularFactor":0.3}},"name":"vray Mirrow"},{"pbrMetallicRoughness":{"roughnessFactor":0.800000011920929,"baseColorFactor":[0.350000023841858,0.350000023841858,0.350000023841858,1],"metallicFactor":0.200000002980232},"extensions":{"KHR_materials_specular":{"specularFactor":0.3}},"name":"vray Material #255"},{"pbrMetallicRoughness":{"roughnessFactor":0.800000011920929,"baseColorFactor":[0.350000023841858,0.350000023841858,0.350000023841858,1],"metallicFactor":0.200000002980232},"extensions":{"KHR_materials_specular":{"specularFactor":0.3}},"name":"vray Material #64"},{"pbrMetallicRoughness":{"roughnessFactor":0.800000011920929,"baseColorFactor":[0,0,0,1],"metallicFactor":0.200000002980232},"extensions":{"KHR_materials_specular":{"specularFactor":0.3}},"name":"QuattroLogo"},{"pbrMetallicRoughness":{"roughnessFactor":0.800000011920929,"baseColorFactor":[0.6800203421720954,0.6523701054108211,0.6523701054108211,1],"metallicFactor":0.200000002980232},"emissiveFactor":[0.6523701054108211,0.4761772653974402,0.4761772653974402],"extensions":{"KHR_materials_specular":{"specularFactor":0.3}},"name":"LedFront"},{"pbrMetallicRoughness":{"roughnessFactor":0.800000011920929,"baseColorFactor":[0.03287591694838383,0.028991186547107816,0.028991186547107816,1],"metallicFactor":0.200000002980232},"extensions":{"KHR_materials_specular":{"specularFactor":0.3}},"name":"vray 05 - Default"},{"pbrMetallicRoughness":{"roughnessFactor":0.800000011920929,"baseColorFactor":[0.009696328701658229,0.02422294206753424,0.04777575355617064,0.92],"metallicFactor":0.200000002980232},"extensions":{"KHR_materials_specular":{"specularFactor":0.3}},"name":"LobGlass","alphaMode":"BLEND"},{"pbrMetallicRoughness":{"roughnessFactor":0.800000011920929,"baseColorFactor":[0.00274509843438864,0.00274509843438864,0.00274509843438864,1],"metallicFactor":0.200000002980232},"extensions":{"KHR_materials_specular":{"specularFactor":0.3}},"name":"DiscChrom"},{"pbrMetallicRoughness":{"roughnessFactor":0.800000011920929,"baseColorFactor":[0.00274509843438864,0.00274509843438864,0.00274509843438864,1],"metallicFactor":0.200000002980232},"extensions":{"KHR_materials_specular":{"specularFactor":0.3}},"name":"vray DiscBlack"},{"pbrMetallicRoughness":{"roughnessFactor":0.800000011920929,"baseColorFactor":[1,1,1,1],"baseColorTexture":{"index":2},"metallicFactor":0.200000002980232},"extensions":{"KHR_materials_specular":{"specularFactor":0.3}},"name":"vray ShinaBok"},{"pbrMetallicRoughness":{"roughnessFactor":0.800000011920929,"baseColorFactor":[0.0274509824812412,0.0274509824812412,0.0274509824812412,1],"metallicFactor":0.200000002980232},"extensions":{"KHR_materials_specular":{"specularFactor":0.3}},"name":"vray 12 - Default"}],"scenes":[{"nodes":[0],"name":"Root Scene"}],"asset":{"generator":"CG美术之家","source":"https://www.cgmszj.com/model/107096.html","version":"2.0"},"meshes":[{"primitives":[{"mode":4,"indices":0,"material":0,"attributes":{"POSITION":33,"TEXCOORD_0":35,"NORMAL":34}},{"mode":4,"indices":1,"material":1,"attributes":{"POSITION":36,"TEXCOORD_0":38,"NORMAL":37}},{"mode":4,"indices":2,"material":2,"attributes":{"POSITION":39,"TEXCOORD_0":41,"NORMAL":40}},{"mode":4,"indices":3,"material":3,"attributes":{"POSITION":42,"TEXCOORD_0":44,"NORMAL":43}},{"mode":4,"indices":4,"material":4,"attributes":{"POSITION":45,"TEXCOORD_0":47,"NORMAL":46}},{"mode":4,"indices":5,"material":5,"attributes":{"POSITION":48,"TEXCOORD_0":50,"NORMAL":49}},{"mode":4,"indices":6,"material":6,"attributes":{"POSITION":51,"TEXCOORD_0":53,"NORMAL":52}},{"mode":4,"indices":7,"material":7,"attributes":{"POSITION":54,"TEXCOORD_0":56,"NORMAL":55}},{"mode":4,"indices":8,"material":8,"attributes":{"POSITION":57,"TEXCOORD_0":59,"NORMAL":58}},{"mode":4,"indices":9,"material":9,"attributes":{"POSITION":60,"TEXCOORD_0":62,"NORMAL":61}},{"mode":4,"indices":10,"material":10,"attributes":{"POSITION":63,"TEXCOORD_0":65,"NORMAL":64}},{"mode":4,"indices":11,"material":11,"attributes":{"POSITION":66,"TEXCOORD_0":68,"NORMAL":67}},{"mode":4,"indices":12,"material":12,"attributes":{"POSITION":69,"TEXCOORD_0":71,"NORMAL":70}},{"mode":4,"indices":13,"material":13,"attributes":{"POSITION":72,"TEXCOORD_0":74,"NORMAL":73}},{"mode":4,"indices":14,"material":14,"attributes":{"POSITION":75,"TEXCOORD_0":77,"NORMAL":76}},{"mode":4,"indices":15,"material":15,"attributes":{"POSITION":78,"TEXCOORD_0":80,"NORMAL":79}},{"mode":4,"indices":16,"material":16,"attributes":{"POSITION":81,"TEXCOORD_0":83,"NORMAL":82}},{"mode":4,"indices":17,"material":17,"attributes":{"POSITION":84,"TEXCOORD_0":86,"NORMAL":85}},{"mode":4,"indices":18,"material":18,"attributes":{"POSITION":87,"TEXCOORD_0":89,"NORMAL":88}},{"mode":4,"indices":19,"material":19,"attributes":{"POSITION":90,"TEXCOORD_0":92,"NORMAL":91}},{"mode":4,"indices":20,"material":20,"attributes":{"POSITION":93,"TEXCOORD_0":95,"NORMAL":94}},{"mode":4,"indices":21,"material":21,"attributes":{"POSITION":96,"TEXCOORD_0":98,"NORMAL":97}},{"mode":4,"indices":22,"material":22,"attributes":{"POSITION":99,"TEXCOORD_0":101,"NORMAL":100}},{"mode":4,"indices":23,"material":23,"attributes":{"POSITION":102,"TEXCOORD_0":104,"NORMAL":103}},{"mode":4,"indices":24,"material":24,"attributes":{"POSITION":105,"TEXCOORD_0":107,"NORMAL":106}}],"name":"AudiQ8"},{"primitives":[{"mode":4,"indices":25,"material":25,"attributes":{"POSITION":108,"TEXCOORD_0":110,"NORMAL":109}},{"mode":4,"indices":27,"material":26,"attributes":{"POSITION":114,"TEXCOORD_0":116,"NORMAL":115}},{"mode":4,"indices":29,"material":27,"attributes":{"POSITION":120,"TEXCOORD_0":122,"NORMAL":121}},{"mode":4,"indices":31,"material":28,"attributes":{"POSITION":126,"TEXCOORD_0":128,"NORMAL":127}}],"name":"front wheels"},{"primitives":[{"mode":4,"indices":26,"material":25,"attributes":{"POSITION":111,"TEXCOORD_0":113,"NORMAL":112}},{"mode":4,"indices":28,"material":26,"attributes":{"POSITION":117,"TEXCOORD_0":119,"NORMAL":118}},{"mode":4,"indices":30,"material":27,"attributes":{"POSITION":123,"TEXCOORD_0":125,"NORMAL":124}},{"mode":4,"indices":32,"material":28,"attributes":{"POSITION":129,"TEXCOORD_0":131,"NORMAL":130}}],"name":"rear wheels"}]}